<svg data-v-0dd9719b="" version="1.0" xmlns="http://www.w3.org/2000/svg" xmlns:xlink="http://www.w3.org/1999/xlink" width="100%" height="100%" viewBox="0 0 340.000000 250.000000" preserveAspectRatio="xMidYMid meet" color-interpolation-filters="sRGB" style="margin: auto;"> <rect data-v-0dd9719b="" x="0" y="0" width="100%" height="100%" fill="#fff" fill-opacity="1" class="background"></rect> <rect data-v-0dd9719b="" x="0" y="0" width="100%" height="100%" fill="url(#watermark)" fill-opacity="1" class="watermarklayer"></rect> <g data-v-0dd9719b="" fill="#333" class="icon-text-wrapper icon-svg-group iconsvg" transform="translate(48.21000671386719,95.06525611877441)"><g class="iconsvg-imagesvg" transform="translate(0,0)"><g><rect fill="#333" fill-opacity="0" stroke-width="2" x="0" y="0" width="60" height="59.869484523738244" class="image-rect"></rect> <svg x="0" y="0" width="60" height="59.869484523738244" filtersec="colorsb5383170983" class="image-svg-svg primary" style="overflow: visible;"><svg xmlns="http://www.w3.org/2000/svg" viewBox="-0.02885628119111061 0 112.13382720947266 111.88999938964844"><path d="M55.66 0A56 56 0 0 0 9.51 24.34l7.54 4.35A47.28 47.28 0 0 1 88.63 22L55.74 41l-8.53-4.92 14.29-8.24 10-5.76a37.4 37.4 0 0 0-42.23 7.47 38.66 38.66 0 0 0-3.56 4.12L55.65 51l46.16-26.64A55.91 55.91 0 0 0 55.66 0z" fill="#00b6bd"></path><path d="M15 79.69a47.43 47.43 0 0 1-4.88-35.32l32.8 19.11v9.83l-14.25-8.24-10-5.76a37.42 37.42 0 0 0 27.61 32.84 39.12 39.12 0 0 0 5.35 1V58.53L5.51 31.89a55.9 55.9 0 0 0 46.13 80v-8.7A47.33 47.33 0 0 1 15 79.69z" fill="#004c72"></path><path d="M106.6 31.92l-7.54 4.36A47.26 47.26 0 0 1 69 101.6v-38l8.53-4.92v28a37.4 37.4 0 0 0 12.9-45.41l-30 17.28v53.3a55.9 55.9 0 0 0 46.17-79.93z" fill="#6bac00"></path></svg></svg> <!----></g></g> <g transform="translate(67,11.214744567871094)"><g data-gra="path-name" fill-rule="" class="tp-name iconsvg-namesvg"><g transform="scale(1)"><g><path d="M5.41 4.02Q3.97 4.02 2.77 3.26 1.57 2.5 1.57 1.39L1.57 1.39Q1.57 0.6 2.17-1.2L2.17-1.2Q5.73-12.11 7.9-18.21 10.07-24.31 13.22-31.29L13.22-31.29Q10.86-30.73 8.36-29.44L8.36-29.44Q7.26-28.88 7.02-28.88L7.02-28.88Q6.61-28.88 5.94-29.55 5.27-30.22 5.27-30.69L5.27-30.69Q11.46-33.27 16.13-33.27L16.13-33.27Q19.18-33.27 22.16-32.21 25.14-31.15 27.08-29.09 29.02-27.03 29.02-24.22L29.02-24.22Q29.02-19.78 25.46-17.38 21.91-14.97 17.68-14.16 13.45-13.36 10.54-13.36L10.54-13.36 10.26-13.36 7.67-4.07Q6.7-0.37 5.41 4.02L5.41 4.02ZM10.68-14.79Q14.37-15.02 17.68-16.22 20.98-17.42 23.08-19.64 25.19-21.86 25.19-24.96L25.19-24.96Q25.19-28.14 22.74-29.85 20.29-31.56 16.78-31.66L16.78-31.66Q14-26.3 10.68-14.79L10.68-14.79ZM27.36 4.02Q25.23 2.91 25.23 1.16L25.23 1.16Q25.23-0.6 27.08-4.27 28.93-7.95 32.03-12.71L32.03-12.71Q29.25-12.89 25.23-12.89L25.23-12.89Q26.34-15.9 30.59-15.9L30.59-15.9Q31.52-15.9 34.01-15.62L34.01-15.62Q39.19-23.11 43.67-28.24 48.15-33.37 49.63-33.37L49.63-33.37Q50.83-33.37 52.78-31.56L52.78-31.56Q51.85-30.87 50.07-25.81 48.29-20.75 46.93-14.72 45.57-8.69 45.57-4.99L45.57-4.99Q45.57-3.14 45.96-2.24 46.35-1.34 47.18-1.34L47.18-1.34Q48.34-1.34 49.91-3.03 51.48-4.71 53.33-8.23L53.33-8.23 54.16-7.35Q52.68-3.42 50.37-1.04 48.06 1.34 45.57 1.34L45.57 1.34Q43.44 1.34 42.47-0.51 41.5-2.36 41.5-5.82L41.5-5.82Q41.5-8.09 42.1-11.55L42.1-11.55Q39.74-11.92 35.49-12.43L35.49-12.43Q31.19-4.81 27.36 4.02L27.36 4.02ZM42.56-13.82Q43.39-17.7 44.73-21.86 46.07-26.02 47.46-29.3L47.46-29.3Q45.43-27.68 42.7-23.94 39.97-20.2 36.97-15.07L36.97-15.07 40.44-14.33Q41.82-13.96 42.56-13.82L42.56-13.82ZM65.53 4.02Q62.16 4.02 59.89 2.4 57.63 0.79 56.54-1.8 55.46-4.39 55.46-7.39L55.46-7.39Q55.46-13.36 58.39-19.39 61.32-25.42 65.9-29.32 70.47-33.23 75.1-33.23L75.1-33.23Q77.27-33.23 78.59-32.21 79.9-31.19 79.9-29.02L79.9-29.02Q79.9-27.17 79.05-24.77 78.19-22.37 76.88-20.68 75.56-18.99 74.22-18.99L74.22-18.99Q73.06-18.99 72.32-20.43L72.32-20.43Q74.08-22.37 75.72-25.05 77.36-27.73 77.36-29.39L77.36-29.39Q77.36-31.19 75.28-31.19L75.28-31.19Q72.05-31.19 68.42-27.27 64.79-23.34 62.36-17.61 59.94-11.88 59.94-6.98L59.94-6.98Q59.94-3.28 61.6-0.74 63.27 1.8 66.64 1.8L66.64 1.8Q69.04 1.8 71.54 0.44 74.03-0.92 76.11-3.19 78.19-5.45 79.44-8.09L79.44-8.09 80.64-7.3Q78.01-2.31 74.1 0.85 70.2 4.02 65.53 4.02L65.53 4.02ZM90.16 4.02Q85.73 4.02 85.63 0.46L85.63 0.46Q85.63-0.74 86.07-2.38 86.51-4.02 87.25-6.33L87.25-6.33Q88.78-10.95 90.51-15.27 92.24-19.59 94.78-25.6L94.78-25.6 96.45-29.53Q91.87-29.48 88.98-29.23 86.09-28.98 82.91-28.42L82.91-28.42Q83.18-31.15 86.33-32.21 89.47-33.27 95.15-33.27L95.15-33.27Q98.9-33.27 104.44-32.72L104.44-32.72Q109.29-32.26 111.56-32.26L111.56-32.26Q109.71-30.5 106.64-30.02 103.56-29.53 99.27-29.53L99.27-29.53Q95.48-20.2 91.78-6.61L91.78-6.61Q90.72-2.68 90.37-0.97 90.02 0.74 90.02 2.68L90.02 2.68Q90.02 3.33 90.16 4.02L90.16 4.02ZM104.77 4.07Q105 1.39 107.01 0.55 109.02-0.28 112.71-0.28L112.71-0.28Q114.05-3.14 115.21-7.53 116.36-11.92 118.07-19.55L118.07-19.55Q118.26-20.33 119.11-24.17 119.97-28.01 120.66-29.99L120.66-29.99Q117.34-29.95 114.91-29.67 112.48-29.39 109.71-28.88L109.71-28.88Q110.17-31.19 112.6-32.21 115.02-33.23 119.97-33.23L119.97-33.23Q125.51-33.23 133.37-32.21L133.37-32.21Q131.98-30.87 130.67-30.45 129.35-30.04 128.01-30.04L128.01-30.04Q124.5-30.04 123.02-29.99L123.02-29.99 122.74-28.61 121.59-22.18Q120.89-18.21 120.08-13.96 119.28-9.7 118.72-7.58L118.72-7.58Q117.34-2.03 115.39-0.18L115.39-0.18Q117.7 0 118.91 0.14L118.91 0.14Q123.16 0.6 125.84 0.65L125.84 0.65Q123.11 3.23 119.6 3.23L119.6 3.23Q113.18 3.23 110.66 3.37 108.14 3.51 104.77 4.07L104.77 4.07ZM139.01 4.02Q135.64 4.02 133.37 2.4 131.11 0.79 130.02-1.8 128.93-4.39 128.93-7.39L128.93-7.39Q128.93-13.36 131.87-19.39 134.8-25.42 139.38-29.32 143.95-33.23 148.58-33.23L148.58-33.23Q150.75-33.23 152.06-32.21 153.38-31.19 153.38-29.02L153.38-29.02Q153.38-27.17 152.53-24.77 151.67-22.37 150.35-20.68 149.04-18.99 147.7-18.99L147.7-18.99Q146.54-18.99 145.8-20.43L145.8-20.43Q147.56-22.37 149.2-25.05 150.84-27.73 150.84-29.39L150.84-29.39Q150.84-31.19 148.76-31.19L148.76-31.19Q145.53-31.19 141.9-27.27 138.27-23.34 135.84-17.61 133.42-11.88 133.42-6.98L133.42-6.98Q133.42-3.28 135.08-0.74 136.74 1.8 140.12 1.8L140.12 1.8Q142.52 1.8 145.02 0.44 147.51-0.92 149.59-3.19 151.67-5.45 152.92-8.09L152.92-8.09 154.12-7.3Q151.49-2.31 147.58 0.85 143.68 4.02 139.01 4.02L139.01 4.02ZM164.56 4.02Q161.75 4.02 159.34 3.07 156.94 2.13 155.46 0.21 153.98-1.71 153.98-4.44L153.98-4.44Q153.98-7.86 156.11-9.36 158.23-10.86 161.1-10.86L161.1-10.86Q159.62-9.34 158.86-7.67 158.09-6.01 158.09-4.44L158.09-4.44Q158.09-1.94 160.01-0.18 161.93 1.57 165.35 1.57L165.35 1.57Q167.52 1.57 169.49 0.85 171.45 0.14 172.68-1.29 173.9-2.73 173.9-4.67L173.9-4.67Q173.9-6.38 172.93-7.72 171.96-9.06 170.55-10.03 169.14-11 166.74-12.29L166.74-12.29Q164.2-13.68 162.62-14.74 161.05-15.8 159.99-17.35 158.93-18.9 158.93-20.93L158.93-20.93Q158.93-23.57 160.64-26.48 162.35-29.39 165.44-31.33 168.54-33.27 172.37-33.27L172.37-33.27Q178.15-33.27 178.15-28.42L178.15-28.42Q178.15-26.06 177.02-23.18 175.89-20.29 174.45-18.07L174.45-18.07Q172.42-18.49 172.42-20.43L172.42-20.43Q172.42-21.3 172.77-22.44 173.11-23.57 173.76-25.14L173.76-25.14Q174.41-26.9 174.73-27.91 175.06-28.93 175.06-29.76L175.06-29.76Q175.06-30.64 174.52-31.08 173.99-31.52 172.61-31.52L172.61-31.52Q169.83-31.52 167.52-29.95 165.21-28.37 163.85-26.13 162.49-23.89 162.49-22L162.49-22Q162.49-20.61 163.32-19.5 164.15-18.39 165.42-17.58 166.69-16.78 168.86-15.62L168.86-15.62Q171.59-14.14 173.23-13.03 174.87-11.92 176.05-10.17 177.23-8.41 177.23-5.96L177.23-5.96Q177.23-2.91 175.4-0.65 173.58 1.62 170.64 2.82 167.71 4.02 164.56 4.02L164.56 4.02Z" transform="translate(-1.5699999332427979, 33.369998931884766)"></path></g> <!----> <!----> <!----> <!----> <!----> <!----> <!----></g></g> <!----></g></g><defs v-gra="od"></defs></svg>